<svg xmlns="http://www.w3.org/2000/svg" fill="none" viewBox="0 0 400 400" id="Remote-Team-2--Streamline-Brooklyn" height="400" width="400">
  <desc>
    Remote Team 2 Streamline Illustration: https://streamlinehq.com
  </desc>
  <g id="remote-team-2--work-remote-team">
    <g id="window 2">
      <path id="vector" fill="#a0596a" d="M313.492 213.29c-7.24 -1.492 -73.874 -1.672 -81.264 -1.696 -1.288 -0.078 -2.724 -0.106 -4.276 -0.382 -8.782 -1.562 -15.662 -6.506 -19.72 -13.424 -0.698 -1.03 -1.154 -2.216 -1.738 -3.356 -1.362 -4.004 -2.194 -5.534 -2.238 -11.848 -0.192 -27.688 -0.024 -26.324 0.136 -28.41 0.534 -5.18 2.408 -9.94 5.114 -13.714 6.688 0.34 4.676 -0.186 42.58 -0.232a33.88 33.88 0 0 1 -1.16 -2.884c-20.666 0.144 -38.524 0.282 -39.14 0.34 4.794 -5.136 11.288 -8.216 17.45 -8.848 1.134 -0.11 9.044 -0.17 19.632 -0.2a50.358 50.358 0 0 1 -0.37 -3.808c-10.254 0.022 -17.736 0.056 -18.492 0.11 -15.626 1.176 -28.372 13.736 -29.41 29.106 -0.198 4.784 -0.326 0.044 -0.122 28.494 0.044 6.066 1.092 11.812 4.972 17.922 4.358 6.918 11.146 11.612 18.1 13.612 3.442 1.09 7.094 1.272 10.272 1.272 3.162 -0.004 74.828 -0.906 76.768 -1.058 3.022 -0.236 4.754 -0.614 2.91 -0.994l-0.004 -0.002Z" stroke-width="2"></path>
      <path id="vector_2" fill="#a0596a" d="M345.808 151.376c-2.638 -14.734 -14.764 -26.48 -32.458 -26.588h-20.206c0.054 0.984 -0.006 2.06 -0.494 3.828 22.122 0.024 24.408 -0.432 30.33 1.414 4.89 1.622 8.94 4.376 11.982 7.716 -10.288 -1.128 -29.49 -0.754 -46.018 -0.654a96.238 96.238 0 0 0 -1.642 3.084c24.36 -0.036 47.934 -0.08 49.582 -0.114 3.856 5.186 5.608 11.024 5.604 17.236 0.104 28.486 0.396 28.656 -0.838 33.568 -1.984 8.192 -8.194 16.128 -17.768 19.936 -5.042 2.064 -12.018 2.412 -8.87 2.94a18.34 18.34 0 0 0 2.622 0.18c1.074 -0.1 2.362 -0.09 3.674 -0.386 6.456 -0.956 14.054 -5.292 19.19 -12.482 3.852 -5.594 5.634 -11.796 5.666 -18.348 0.124 -26.186 0.32 -27.708 -0.356 -31.33Z" stroke-width="2"></path>
      <g id="group">
        <path id="vector_3" fill="#a0596a" d="M221.93 135.26a1.956 1.956 0 1 0 0 -3.91 1.956 1.956 0 0 0 0 3.912Z" stroke-width="2"></path>
        <path id="vector_4" fill="#a0596a" d="M241.46 135.26a1.956 1.956 0 1 0 0 -3.91 1.956 1.956 0 0 0 0 3.912Z" stroke-width="2"></path>
        <path id="vector_5" fill="#a0596a" d="M231.694 135.26a1.956 1.956 0 1 0 0 -3.91 1.956 1.956 0 0 0 0 3.912Z" stroke-width="2"></path>
      </g>
    </g>
    <g id="window 1">
      <path id="vector_6" fill="#a0596a" d="M192.394 130.76c-0.316 -11.768 -8.632 -24.34 -22.236 -28.73 -6.496 -1.98 -4.39 -1.51 -56.048 -1.524 0.386 1.278 0.716 2.65 0.986 4.122l44.208 -0.26c10.438 -0.074 18.992 4.426 24.552 12.496 -10.594 -1.282 -46.338 -0.962 -61.848 -0.96 -1.178 1.194 -2.774 2.276 -4.632 3.24 0.03 0.2 62.358 0.37 68 0.248 2.072 3.946 3.368 9.054 3.288 14.734 -0.696 49.166 2.382 52.254 -3.39 62.818 -2.362 4.47 -6.946 9.282 -12.446 11.982 -5.354 2.758 -10.616 3.15 -11.904 3.542 -0.74 0.226 -0.722 0.398 0.494 0.526 1.626 0.222 4.756 0.134 8.172 -0.736 9.25 -2.426 17.69 -9.892 21.11 -20.46 1.05 -3.192 1.416 -6.65 1.482 -9.952 0.036 -3.224 0.236 -49.956 0.206 -51.084l0.006 -0.002Z" stroke-width="2"></path>
      <path id="vector_7" fill="#a0596a" d="M159.438 212.558c-9.646 -1.524 -83.232 -0.868 -119.24 -1.686 -13.486 -0.306 -23.576 -8.956 -26.908 -19.56 -1.154 -3.836 -1.386 -6.412 -1.36 -10.67 0 0 -0.032 -48.334 0.116 -50.346 0.234 -3.688 1.296 -7.3 3.01 -10.6 11.012 0.534 20.046 0.02 64.774 -0.29 0.022 -0.476 0.05 -0.962 0.086 -1.46 0 0 -3.622 -0.25 -6.368 -2.026 -28.742 0.016 -54.45 0.046 -56.21 0.098 4.688 -6.44 10.994 -9.992 18.596 -11.304 1.246 -0.216 43.314 0.008 44.888 0.008 0.074 -1.206 0.224 -2.66 0.524 -4.204 -23.304 0.02 -43.16 0.074 -44.418 0.188 -15.728 1.41 -28.118 14.94 -28.718 30.1 -0.13 1.924 0.382 0.026 -0.062 49.774 -0.07 7.936 1.58 15.672 7.616 22.76 5.166 5.944 11.564 9.596 19.694 10.908 2.412 0.39 4.888 0.364 7.056 0.372 35.704 -0.062 110.594 -0.918 113.126 -1.068 3.944 -0.236 6.206 -0.614 3.798 -0.994Z" stroke-width="2"></path>
      <path id="vector_8" fill="#a0596a" d="M53.778 112.456a2.486 2.486 0 1 0 0 -4.972 2.486 2.486 0 0 0 0 4.972Z" stroke-width="2"></path>
      <path id="vector_9" fill="#a0596a" d="M42.08 112.456a2.486 2.486 0 1 0 0 -4.972 2.486 2.486 0 0 0 0 4.972Z" stroke-width="2"></path>
      <path id="vector_10" fill="#a0596a" d="M30.384 112.456a2.486 2.486 0 1 0 0 -4.972 2.486 2.486 0 0 0 0 4.972Z" stroke-width="2"></path>
    </g>
    <g id="window 4">
      <path id="vector_11" fill="#a0596a" d="M391.84 253.914c-0.386 -13.688 -11.286 -28.268 -29.046 -30.134 -7.458 -0.346 -128.224 -0.17 -130.438 0.048 -12.034 1.182 -23.112 9.49 -27.224 22.15 -1.878 6.406 -1.486 9.366 -1.5 17.806 -0.082 46.322 -0.212 46.116 0.638 50.616 2.658 12.776 12.558 23.452 27.69 25.522 4.022 0.468 122.67 -0.828 123.008 -0.848 4.04 -0.236 6.356 -0.614 3.89 -0.994 -9.88 -1.524 -85.376 -2.06 -122.096 -1.686 -13.452 0.138 -24.216 -8.1 -27.918 -19.428 -1.238 -3.94 -1.434 -6.756 -1.41 -10.924 0 0 -0.066 -42.726 0.066 -51.624a28.432 28.432 0 0 1 3.106 -11.73c0.202 0.008 174.222 0.24 174.426 0.24 1.97 3.93 3.166 8.904 3.078 14.424 -0.508 31.964 0.822 50.328 -0.114 55.458 -1.456 9.66 -7.398 17.18 -15.444 21.502 -2.322 1.246 -6.184 2.558 -7.922 2.838 -2.242 0.57 -6.788 0.998 -3.738 1.362 1.67 0.2 4.87 0.11 8.358 -0.808 9.064 -2.362 17.932 -10.106 21.142 -21.326 0.516 -1.65 0.76 -3.364 1.02 -5.076 0.392 -5.642 0.434 -57.192 0.428 -57.394v0.006Zm-37.978 -14.568c-0.202 0 -138.152 0.52 -141.788 0.87 4.95 -7.432 12.786 -12.142 22.478 -12.674l123.11 -0.056c11.242 -0.422 20.324 4.406 25.87 12.838 -5.214 -0.634 -20.88 -0.978 -29.672 -0.978h0.002Z" stroke-width="2"></path>
      <g id="group_2">
        <path id="vector_12" fill="#a0596a" d="M221.408 235.882a2.54 2.54 0 1 0 0 -5.08 2.54 2.54 0 0 0 0 5.08Z" stroke-width="2"></path>
        <path id="vector_13" fill="#a0596a" d="M246.774 235.882a2.54 2.54 0 1 0 0 -5.08 2.54 2.54 0 0 0 0 5.08Z" stroke-width="2"></path>
        <path id="vector_14" fill="#a0596a" d="M234.092 235.882a2.54 2.54 0 1 0 0 -5.08 2.54 2.54 0 0 0 0 5.08Z" stroke-width="2"></path>
      </g>
    </g>
    <g id="window 3">
      <path id="vector_15" fill="#a0596a" d="M192.6 253.538c-2.072 -10.818 -9.172 -19.294 -18.57 -23.458 -6.202 -2.698 -10.882 -2.74 -16.368 -2.732 -1.898 0 -101.804 -0.028 -104.598 0.172 -13.622 1.238 -25.546 11.206 -28.49 25.68 -0.824 4.05 -0.378 3.236 -0.588 45.42 -0.038 7.628 1.494 14.208 6.524 20.892 5.798 7.796 14.89 12.11 23.436 12.566 4.278 0.298 101.912 -0.91 102.808 -0.968 3.582 -0.236 5.636 -0.614 3.45 -0.994 -8.484 -1.474 -72.404 -1.642 -101.778 -1.686 -5.542 -0.008 -8.026 -0.214 -12.896 -2.02a28.314 28.314 0 0 1 -12.562 -9.902c-4.158 -5.938 -5.202 -11.416 -5.2 -17.832 0.014 -43.242 -0.17 -41.36 0.68 -45.376a27.49 27.49 0 0 1 3.622 -8.826c6.482 0.248 38.662 0.358 71.87 0.394 0.352 -1.034 0.696 -2.078 1.04 -3.082 -33.77 0.22 -71.208 0.472 -71.378 0.486a28.066 28.066 0 0 1 7.812 -6.996c8.166 -4.946 14.754 -3.96 22.674 -4.082 0 0 98.858 0.098 99.872 0.144 4.026 0.4 7.292 1.608 9.684 2.828 1.244 0.528 2.174 1.26 3.028 1.726 2.9 1.976 4.946 3.956 6.892 6.472 -11.192 -1.318 -42.802 -0.808 -54.362 -0.734 0.164 1.012 0.334 2.104 0.502 3.25 29.084 0 53.72 -0.052 55.496 -0.106a30.144 30.144 0 0 1 2.824 6.148c1.712 5.5 1.624 5.61 1.468 49.988 -0.02 5.68 -1.848 11.286 -5.036 15.922 -1.456 2.246 -3.352 4.152 -5.336 5.91 -7.444 6.336 -15.74 6.73 -17.562 7.284 -0.678 0.206 -0.656 0.394 0.45 0.53 1.47 0.188 4.33 0.254 7.432 -0.528 12.172 -2.798 21.654 -13.608 23.178 -26.004 0.192 -1.508 0.28 -3.118 0.304 -4.576 0.644 -39.226 0.49 -41.55 -0.322 -45.91Z" stroke-width="2"></path>
      <g id="group_3">
        <path id="vector_16" fill="#a0596a" d="M42.506 239.224a2.276 2.276 0 1 0 0 -4.554 2.276 2.276 0 0 0 0 4.554Z" stroke-width="2"></path>
        <path id="vector_17" fill="#a0596a" d="M65.246 239.224a2.276 2.276 0 1 0 0 -4.554 2.276 2.276 0 0 0 0 4.554Z" stroke-width="2"></path>
        <path id="vector_18" fill="#a0596a" d="M53.876 239.224a2.276 2.276 0 1 0 0 -4.554 2.276 2.276 0 0 0 0 4.554Z" stroke-width="2"></path>
      </g>
    </g>
    <g id="character 1">
      <path id="vector_19" fill="#2a1f1a" d="M102.392 117.154c-0.496 -1.048 -2.902 -1.176 -4.038 -1.42 -0.25 -0.032 -0.73 -0.284 -0.686 -0.26l-0.04 -0.172c-0.532 -2.232 0.808 -10.132 0.788 -10.644 -0.042 -1.036 -0.248 -2.308 -1.28 -2.222 -1.12 0.094 -1.924 2.336 -2.084 3.448 -0.388 2.698 -1.25 7.544 -0.566 10.418 0.058 0.456 0.442 0.9 0.664 1.294 0.71 0.72 1.602 1.34 3.4 1.486 0.98 0.078 1.924 0.038 2.794 -0.344 0.788 -0.346 1.416 -0.806 1.048 -1.584Z" stroke-width="2"></path>
      <path id="vector_20" fill="#2a1f1a" d="M89.748 105.024c-0.928 0 -1.682 1.114 -1.682 2.486s0.752 2.486 1.682 2.486c0.93 0 1.682 -1.112 1.682 -2.486s-0.752 -2.486 -1.682 -2.486Z" stroke-width="2"></path>
      <path id="vector_21" fill="#2a1f1a" d="M105.754 105.024c-0.928 0 -1.682 1.114 -1.682 2.486s0.752 2.486 1.682 2.486c0.93 0 1.682 -1.112 1.682 -2.486s-0.752 -2.486 -1.682 -2.486Z" stroke-width="2"></path>
      <path id="vector_22" fill="#2a1f1a" d="M86.664 102.072a1.94 1.94 0 0 0 0.812 -0.04c1.334 -0.43 0.596 -0.876 1.646 -1.998 0.786 -0.96 1.27 -0.366 1.468 -1.72 0.158 -1.834 -0.902 -2.258 -1.704 -1.956 -0.11 0.022 -1.288 0.526 -2.142 1.428 -0.62 0.656 -1.77 2.412 -1.54 3.252 0.196 0.722 0.784 0.96 1.46 1.034Z" stroke-width="2"></path>
      <path id="vector_23" fill="#2a1f1a" d="M110.428 101.59c0.368 -0.442 0.476 -0.88 0.328 -1.256 -0.032 -0.08 -0.48 -1.422 -1.568 -2.55 -1.102 -1.142 -2.726 -1.542 -2.902 -1.466 -0.974 0.2 -1.11 1.416 -0.796 2.344 0.448 1.32 0.42 0.376 1.356 1.404 0.404 0.38 0.656 1.03 0.702 1.11 0.294 1.278 2.346 1.052 2.88 0.414Z" stroke-width="2"></path>
      <path id="vector_24" fill="#2a1f1a" d="M103.236 127.038c-1.614 -0.42 -1.654 0.556 -4.302 0.776 -1.45 0.12 -2.918 -0.216 -3.09 -0.196a1.722 1.722 0 0 0 -1.406 1.258c-0.29 0.958 0.672 1.814 1.474 1.972 3.878 0.76 7.3 -0.494 8.036 -1.382 0.252 -0.302 0.474 -0.85 0.402 -1.196 -0.1 -0.476 -0.616 -1.1 -1.116 -1.23l0.002 -0.002Z" stroke-width="2"></path>
      <path id="vector_25" fill="#2a1f1a" d="M114.784 147.458c0.932 1.624 11.252 4.69 20.66 12.15 4.104 3.254 8.998 8.106 13.194 13.614 8.884 11.66 13.49 23.39 14.574 25.586 0.512 1.04 2.62 5.474 3.34 6.36 0.406 0.5 0.868 0.732 1.124 0.264 2.106 -3.844 -13.576 -45.54 -44.782 -57.38 -1.976 -0.75 -9.15 -2.404 -8.11 -0.594Z" stroke-width="2"></path>
      <path id="vector_26" fill="#2a1f1a" d="M76.29 146.986c-2.21 -1.324 -19.786 1.67 -36.744 23.948 -6.116 8.036 -13.614 21.744 -15.618 29.576 -0.24 0.94 -0.776 3.236 -0.724 4.206 0.036 0.666 0.302 1.106 0.772 0.86 3.222 -1.688 12.454 -33.81 35.704 -48.812 6.894 -5.242 18.76 -8.486 16.608 -9.776l0.002 -0.002Z" stroke-width="2"></path>
      <path id="vector_27" fill="#2a1f1a" d="M125.98 110.378c-0.342 -2.404 -1.918 -5.194 -4.42 -6.008l-0.026 -0.008c0.158 -4.06 -5.022 -19.44 -15.954 -24.032 6.036 -6.97 1.572 -18.654 -7.374 -18.654 -8.862 0 -13.414 11.574 -7.424 18.596 -10.446 3.186 -15.11 12.088 -15.358 23.064 -4.834 -1.02 -7.37 5.678 -6.194 9.774 1.146 3.75 4.798 5.558 8.618 6.448 0.13 0.03 0.06 0.02 0.08 0.028 -0.118 1.514 -0.022 3.9 0.06 4.76 0.654 6.86 3.146 12.03 9.48 14.744 -0.88 1.708 -2.004 6.274 -2.494 9.44 -0.024 0.34 -0.696 3.254 1.006 6.708 2.21 4.244 5.66 8.348 10.432 8.69 -3.32 3.314 -3.364 3.344 -8.026 7.956 -2.468 -1.988 -4 -3.41 -6.262 -5.63 -3.68 -3.614 -5.64 -6.708 -6.064 -7.304 -3.24 -4.384 -3.83 -6.854 -4.64 -5.86 -0.464 0.572 -0.32 2.054 -0.06 3.006 1.012 3.908 3.272 7.404 5.894 10.412 1.96 2.288 6.032 6.138 7.974 7.684 4.088 3.368 2.79 3.476 12.206 -5.886l8.04 6.972c1.476 1.332 3.222 0.624 3.424 0.488 6.316 -4.324 10.426 -9.5 12.004 -12.914 1.852 -3.48 2.494 -8.708 0.974 -7.82 -1.35 0.738 -1.526 4.028 -7.842 11.164 -3.374 3.72 -6.66 5.988 -6.458 5.814 -2.97 -2.566 -5.828 -5.982 -8.266 -8.25 3.14 -0.434 5.998 -1.974 7.968 -4.46 2.436 -3.146 3.516 -7.42 3.18 -10.272 -0.604 -3.262 -1.104 -6.104 -2.316 -9.142 8.28 -2.708 11.834 -10.884 11.23 -19.68 3.766 -2.272 7.264 -5.48 6.608 -9.828ZM106.698 149.78a13.4 13.4 0 0 1 -1.286 5.312c-1.33 2.698 -3.442 4.336 -6.572 4.86 -0.706 0.066 -1.848 0.358 -3.006 0.02 -2.838 -0.66 -5.2 -3.926 -6.524 -6.508 -1.872 -3.794 0.548 -6.486 0.068 -13.688 2.944 0.894 6.152 1.256 9.444 1.25 7.83 -0.092 7.17 -1.014 7.156 -0.334 -0.114 5.55 0.732 8.426 0.72 9.088Zm-7.818 -12.596c-4.77 -0.1 -10.008 -0.62 -13.442 -3.93 0.738 -1.902 1.528 -3.68 2.516 -5.148 2.85 -3.986 9.708 -3.69 14.318 -3.668 1.41 -0.01 2.776 0.04 3.778 0.186 4.728 0.676 3.402 4.234 5.292 9.06 -3.368 3.132 -7.822 3.568 -12.46 3.5h-0.002Zm17.282 -19.58a1.44 1.44 0 0 0 -0.742 1.444c0.442 3.6 0.086 7.876 -1.53 11.126 0.024 -3.832 -1.402 -7.546 -5.024 -8.796 -2.608 -0.964 -5.59 -0.772 -11.384 -0.77 -6.752 0.396 -12.776 2.532 -14.314 9.3 -1.77 -4.146 -1.53 -8.444 -1.366 -12.474a1.24 1.24 0 0 0 -1.124 -1.282c-3.024 -0.274 -7.292 -1.29 -8.264 -4.168 -0.598 -1.772 0.102 -5.876 2.042 -6.28 1.412 -0.29 3.428 1.01 4.67 1.744 0.804 0.484 1.558 1.038 1.89 0.214 0.992 -2.482 1.128 -11.84 6.908 -16.284 3.6 -3.192 19.988 -6.982 24.478 10.248 0.656 1.97 1.182 6.024 1.262 6.572a1.988 1.988 0 0 0 3.256 1.226c0.438 -0.416 0.856 -0.662 1.278 -0.92 1.666 -1.036 2.594 -0.636 3.32 0.55 2.318 3.784 -1.444 6.428 -5.356 8.558v-0.006Z" stroke-width="2"></path>
      <path id="vector_28" fill="#2a1f1a" d="M97.692 182.476a2.386 2.386 0 1 0 0 -4.772 2.386 2.386 0 0 0 0 4.772Z" stroke-width="2"></path>
      <path id="vector_29" fill="#2a1f1a" d="M97.692 194.308a2.386 2.386 0 1 0 0 -4.772 2.386 2.386 0 0 0 0 4.772Z" stroke-width="2"></path>
    </g>
    <g id="character 2">
      <path id="vector_30" fill="#2a1f1a" d="M265.046 134.676c-0.316 -0.306 -0.542 -0.42 -0.668 -0.464 -1.236 -0.434 -0.81 0.124 -2.768 0.798 -0.876 0.3 -1.8 0.372 -1.894 0.446 -0.442 0.348 -0.65 1.074 -0.682 1.62 -0.054 0.936 0.728 1.508 1.344 1.472 1.674 -0.096 4.734 -1.15 5.18 -2.152 0.29 -0.654 -0.014 -1.234 -0.512 -1.72Z" stroke-width="2"></path>
      <path id="vector_31" fill="#2a1f1a" d="M271.004 138.408a8.64 8.64 0 0 1 -1.402 2.116c-0.828 0.884 -1.9 1.336 -1.986 1.44 -0.306 0.366 -0.516 1.05 -0.344 1.788 0.226 0.96 1.436 1.174 2.188 0.824 0.138 -0.038 1.462 -0.73 2.488 -1.77 0.752 -0.764 2.268 -2.796 2.21 -3.848 -0.098 -1.784 -2.536 -1.76 -3.152 -0.55h-0.002Z" stroke-width="2"></path>
      <path id="vector_32" fill="#2a1f1a" d="M270.356 128.44c0.852 0 1.542 -1.026 1.542 -2.294s-0.69 -2.296 -1.542 -2.296c-0.852 0 -1.542 1.028 -1.542 2.296 0 1.268 0.69 2.296 1.542 2.296Z" stroke-width="2"></path>
      <path id="vector_33" fill="#2a1f1a" d="M256.292 131.596c0.852 0 1.542 -1.028 1.542 -2.296 0 -1.268 -0.69 -2.296 -1.542 -2.296 -0.852 0 -1.542 1.028 -1.542 2.296 0 1.268 0.69 2.296 1.542 2.296Z" stroke-width="2"></path>
      <path id="vector_34" fill="#2a1f1a" d="M272.666 116.716c-0.006 -0.626 -0.386 -1.08 -0.806 -1.222 -0.128 -0.12 -1.616 -0.418 -2.81 -0.21 -1.202 0.208 -2.254 0.62 -2.352 0.742 -0.786 1 0.598 3.06 1.452 2.796 0.622 -0.192 1.818 -0.46 2.438 -0.266 0.364 -0.01 0.112 0.15 1.106 -0.528 0.404 -0.308 0.978 -0.8 0.972 -1.312Z" stroke-width="2"></path>
      <path id="vector_35" fill="#2a1f1a" d="M257.116 118.654c-0.364 -0.51 -0.934 -0.664 -1.362 -0.54 -0.174 -0.024 -1.562 0.584 -2.424 1.44 -0.866 0.86 -1.494 1.796 -1.502 1.954 -0.072 1.266 2.244 2.166 2.792 1.46 0.4 -0.516 1.224 -1.416 1.846 -1.618 0.298 -0.22 0.178 0.052 0.604 -1.064 0.156 -0.484 0.342 -1.218 0.046 -1.632Z" stroke-width="2"></path>
      <path id="vector_36" fill="#2a1f1a" d="M299.958 120.08c3.552 -3.98 -0.646 -6.352 -0.646 -6.352 4.628 -7.534 -3.122 -11.84 -3.122 -11.84 0.646 -5.06 -3.122 -4.844 -3.122 -4.844 -0.646 -7.75 -8.288 -6.996 -8.288 -6.996 -3.122 -6.566 -9.042 -3.768 -9.042 -3.768 -2.584 -2.906 -6.566 -0.216 -6.566 -0.216 -4.414 -4.628 -11.84 1.83 -11.84 1.83 -7.75 -0.108 -8.18 5.06 -8.18 5.06 -4.844 0.968 -3.768 7.212 -3.768 7.212 -3.55 4.916 1.6 10.448 3.272 12.04 -6.574 9.736 2.146 43.634 18.84 42.532 -0.09 3.148 0.464 7.128 0.832 10.226 0.192 1.61 -0.194 3.474 0.982 6.08 0.75 1.824 2.394 3.41 4.218 4.18 1.84 0.83 3.704 0.896 5.444 0.842 2.098 -0.2 1.082 0.006 3.908 -0.62 5.926 -1.796 9.038 -6.83 10.068 -12.936 0.536 -3.14 0.278 -4.286 -0.006 -5.408 -0.704 -2.788 -4.236 -17.034 -5.964 -14.774 -1.44 1.88 1.998 14.86 2.444 16.652 -0.126 5.26 -2.13 10.896 -7.104 12.61 -1.728 0.588 -3.876 0.842 -5.628 0.602 -3.624 -0.408 -4.79 -3.51 -4.52 -6.536 -0.594 -4.608 -0.834 -7.58 -2.086 -11.378 6.49 -1.858 10.176 -7.988 8.272 -7.866 -1.424 0.12 -2.792 2.188 -7.274 3.76 -1.622 0.53 -3.48 0.964 -4.888 0.748 -12.836 -1.28 -19.46 -30.63 -14.046 -37.144 2.406 -3.308 5.972 -4.578 9.984 -5.39 9.464 -1.86 16.834 8.752 19.388 18.052 0.1 0.364 0.612 0.35 0.706 -0.016 1.022 -3.99 4.964 -6.232 6.642 -0.636 1.496 4.988 -1.18 7.344 -2.478 8.16a1.15 1.15 0 0 0 -0.518 1.19c0.376 1.952 1.79 6.432 6.656 4.212 6.136 -2.798 4.09 -6.458 4.09 -6.458 3.876 -0.108 2.476 -3.66 2.476 -3.66 7.212 -5.704 0.862 -9.148 0.862 -9.148l0.002 0Z" stroke-width="2"></path>
      <path id="vector_37" fill="#2a1f1a" d="M340.284 190.892a29.456 29.456 0 0 0 -3.986 -7.664c-0.412 -0.64 -5.16 -7 -10.994 -12.62 -2.996 -2.884 -6.494 -5.344 -8.918 -7 -4.704 -2.8 -4.216 -2.48 -8.666 -4.464 -5.172 -1.78 -5.952 -1.606 -7.078 -1.7 -0.656 -0.036 -2.444 -0.112 -3.07 0.084 -0.466 0.144 -0.758 0.47 -0.556 0.898 0.272 0.574 1.152 1.044 1.78 1.294 1.918 0.76 3.824 1.55 5.74 2.308 -0.172 0.434 -0.322 0.9 -0.478 1.29 -1.924 5.636 -5.606 12.012 -10.378 15.934 -1.314 1.224 -4.84 3.274 -6.87 3.81 -2.22 0.9 -6.78 1.34 -8.882 1.012a20.926 20.926 0 0 1 -8.618 -2.394c-2.538 -1.302 -4.384 -3.306 -5.61 -5.3 -2.376 -3.7 -2.782 -7.82 -2.938 -8.404 -0.91 -4.794 -0.898 -6.5 -0.92 -6.76 2.22 -0.896 6.574 -2.094 5.438 -3.27 -0.418 -0.434 -1.436 -0.48 -2.148 -0.486 -2.916 -0.02 -5.816 0.688 -8.604 1.694 -2.742 1.26 -4.392 1.94 -6.334 3.166 -3.468 1.88 -7.542 5.006 -11.27 8.478 -7.556 6.93 -12.964 15.746 -13.498 16.76 -3.176 6.334 -1.478 6.878 0.662 4.464 5.342 -6.122 6.806 -10.102 15.6 -18.586 4.244 -4.094 11.294 -8.904 17.058 -11.048 -0.388 3.81 0.68 9.336 2.212 12.97 0.292 0.434 1.192 3.628 4.544 6.74 4.234 3.936 8.914 5.324 14.438 5.81 4.058 0.392 9.158 -0.526 12.068 -1.936 1.136 -0.55 2.276 -1 3.192 -1.668 6.044 -3.708 10.764 -10.184 12.322 -15.7 0.458 -1.442 1.004 -4.346 1.176 -5.734l1.548 0.712c21.514 9.612 30.242 33.128 32.212 29.528 0.29 -0.548 0.062 -1.556 -0.172 -2.22h-0.002Z" stroke-width="2"></path>
    </g>
    <g id="character 4">
      <path id="vector_38" fill="#2a1f1a" d="M300.142 267.076c0.068 -1.344 -0.114 -0.562 -0.65 -2 -0.254 -0.564 -0.246 -0.81 -0.154 -1.158 0.066 -0.204 0.866 -1.072 -0.166 -2.404 -0.626 -0.806 -1.746 -0.508 -2.232 0.14 -2.172 2.9 0.138 6.748 1.34 7.072 1.046 0.372 1.812 -0.648 1.862 -1.65Z" stroke-width="2"></path>
      <path id="vector_39" fill="#2a1f1a" d="M308.06 260.87c-1.28 0 -2.318 0.528 -2.318 1.182 0 0.654 1.038 1.182 2.318 1.182s2.316 -0.528 2.316 -1.182c0 -0.654 -1.038 -1.182 -2.316 -1.182Z" stroke-width="2"></path>
      <path id="vector_40" fill="#2a1f1a" d="M295.412 257.746c-0.826 -0.978 -1.9 -1.428 -2.398 -1.008 -0.498 0.42 -0.234 1.554 0.592 2.532s1.9 1.428 2.398 1.008c0.498 -0.42 0.234 -1.554 -0.592 -2.532Z" stroke-width="2"></path>
      <path id="vector_41" fill="#2a1f1a" d="M314.592 258.596c0.768 -0.576 0.748 -1.522 0.344 -1.986a8.336 8.336 0 0 0 -2.428 -1.952c-1.404 -0.722 -3.03 -0.772 -3.202 -0.67 -1.466 0.624 -0.352 3.058 0.37 3.142 1.796 0.208 2.596 1.662 3.18 1.868 0.432 0.154 1.062 0.106 1.736 -0.402Z" stroke-width="2"></path>
      <path id="vector_42" fill="#2a1f1a" d="M299.476 250.814a8.32 8.32 0 0 0 -3.114 -0.12c-1.56 0.258 -2.894 1.186 -2.972 1.37 -0.814 1.39 1.546 2.66 2.17 2.302 1.576 -0.904 3.072 -0.212 3.668 -0.394 1.316 -0.404 1.784 -2.82 0.248 -3.158Z" stroke-width="2"></path>
      <path id="vector_43" fill="#2a1f1a" d="M306.49 273.922a1.222 1.222 0 0 0 -0.598 -0.672c-2.43 -1.16 -4.874 1.118 -10.05 -1.31a4.186 4.186 0 0 0 -0.954 -0.07c-0.404 0.022 -0.786 0.31 -0.996 0.612 -0.626 0.902 0.362 2.174 1.344 2.718 0.174 0.096 2.156 0.958 4.16 1.128 1.414 0.12 4.904 0.134 6.16 -0.526 0.81 -0.426 1.282 -1.036 0.934 -1.88Z" stroke-width="2"></path>
      <path id="vector_44" fill="#2a1f1a" d="M341.93 287.246c-2.914 -3.358 -7.35 -9.65 -5.658 -15.292 2.454 -8.178 7.542 -23.806 -7.632 -30.892 0 0 -11.084 -14.174 -25.622 -12.448 -14.538 1.726 -17.9 14.446 -17.9 14.446l6.22 1.714c-1.592 3.032 -3.952 10.77 -4.946 14.046 -0.24 0.79 -0.628 2.99 -0.72 3.73l-11.11 14.092a2.146 2.146 0 0 0 0.262 2.936c2.966 2.624 10.34 8.232 21.426 10.592l0.78 -2.098c3.48 1.078 6.942 1.072 10.276 -0.4 1.246 -0.548 3.23 -1.706 4.038 -2.656 0.47 -0.56 0.584 -1.082 0.036 -1.188 -0.728 -0.13 -2.122 0.368 -3.088 0.656 -4.796 1.482 -7.254 0.628 -8.71 0.424 -0.474 -0.094 -0.91 -0.294 -1.368 -0.424a5.06 5.06 0 0 1 -1.306 -0.536c-0.266 -0.17 -1.876 -0.738 -3.57 -2.684 -1.664 -1.93 -3.316 -5.29 -3.856 -9.52 -1.118 -7.652 0.862 -13.518 3.438 -20.81 0.968 -2.706 1.264 -3.298 1.696 -4.252 0.008 -0.024 0.028 -0.04 0.052 -0.028 4.416 1.366 16.49 5.076 17.076 5.226 1.856 0.476 6.046 1.418 7.546 1.462 -0.35 2.666 -1.326 10.838 -0.186 11.522 1.362 0.818 3.27 -4.542 7.088 -0.544 3.818 3.998 1 10.434 -6.36 10.442 0 0 -2.362 12.91 0.726 19.814 0 0 12.444 -0.204 20.358 -3.25a2.572 2.572 0 0 0 1.02 -4.084l-0.006 0.004Z" stroke-width="2"></path>
      <path id="vector_45" fill="#2a1f1a" d="M256.096 314.976c1.73 0.464 5.89 -3.924 10.062 -7.132 12.356 -9.5 23.074 -10.396 24.958 -12.468 0.58 -0.638 0.29 -1.564 -1.468 -1.666a16.95 16.95 0 0 0 -6.258 0.846c-12.096 3.974 -22.668 11.838 -25.986 16.168 -0.482 0.63 -1.776 2.596 -1.852 3.378 -0.038 0.386 0.128 0.762 0.542 0.874h0.002Z" stroke-width="2"></path>
      <path id="vector_46" fill="#2a1f1a" d="M358.15 334.696c0.29 -0.516 0.086 -1.4 -0.106 -1.996a30.204 30.204 0 0 0 -1.38 -3.564c-2.19 -4.7 -9.526 -13.972 -13.222 -18.048 -3.042 -3.356 -14.368 -14.394 -18.894 -14.22 -0.462 0.018 -0.826 0.262 -0.788 0.708 0.05 0.586 0.638 1.228 1.076 1.644 6.208 5.906 8.314 6.228 15.92 14.584 9.64 10.588 15.898 23.562 17.394 20.892Z" stroke-width="2"></path>
      <path id="vector_47" fill="#2a1f1a" d="M319.34 291.896c-2.474 -0.58 -4.438 1.732 -7.86 2.442 -0.202 0.036 -1.086 0.184 -1.286 0.13 0.064 0.224 -0.42 -1.364 -1.966 -2.688 -4.172 -3.538 -7.896 0.192 -9.458 -0.428 -1.818 -0.7 -1.784 -3.142 -4.452 -4.282 -1.088 -0.44 -1.816 -0.094 -2.09 0.104 -0.822 0.6 -0.956 1.668 -0.79 3.042 0.168 1.62 0.958 3.426 1.392 3.974 0.33 0.42 0.724 0.584 0.948 0.208 0.44 -0.728 0.082 -2.258 0.246 -2.874 0.194 -0.562 0.608 -0.112 0.562 0.148 0.786 1.424 2.3 2.548 3.588 2.85 2.514 0.558 4.626 -1.238 6.296 -1.042 0.894 0.082 1.752 0.73 2.224 1.388 0.456 0.568 0.54 1.306 1.256 2.012 1.688 1.718 5.58 0.494 7.716 -0.554l1.846 -0.892c1.348 -0.684 1.542 0.5 1.37 1.228 -0.274 2.708 -1.786 2.366 -2.382 2.428 -8.506 0.728 -15.112 -1.184 -16.36 -1.16 -1.486 0.032 -0.676 1.16 0.674 1.942 -2.052 1.246 -4.018 2.842 -5.396 5.166 -0.952 1.604 -1.708 3.81 -0.946 5.358 0.176 0.432 0.866 1.078 1.542 1.128 1.282 0.074 1.548 -0.338 1.964 -0.524 0.488 -0.324 0.858 -0.642 1.196 -0.96 -0.954 2.516 -3.836 10.356 -3.704 13.176 0.072 3.166 1.68 2.898 2.272 1.708 1.776 -3.496 0.268 -2.45 4.7 -14.358 0.532 11.468 -0.742 14.454 0.162 15.856 0.366 0.562 1.136 0.664 1.744 -0.176 0.774 -1.088 1.14 -2.324 1.276 -3.552 0.334 -1.97 0.264 -7.714 0.15 -10.436l0.208 0.238c1.144 0.956 2.15 1.51 3.522 0.91 2.948 -1.28 0.25 -8.392 -1.454 -11.184 3.084 0.464 6.206 0.402 9.286 0.108 2.12 -0.202 2.728 0.032 4.288 -3.302 1.474 -3.398 -0.198 -6.684 -2.284 -7.132Z" stroke-width="2"></path>
      <path id="vector_48" fill="#2a1f1a" d="M222.468 272.25c0.238 -3.814 -1.1 -7.496 -0.898 -14.998 0.14 -5.162 1.072 -10.304 1.14 -10.888 0.064 -1.2 0.19 -3.334 -0.934 -3.2 -1.31 0.156 -2.392 3.832 -2.618 5.222 -1.612 9.936 -0.692 19.38 0.488 22.602 0.23 0.626 0.952 2.152 1.44 2.492 0.54 0.374 1.302 0.038 1.38 -1.228l0.002 -0.002Z" stroke-width="2"></path>
      <path id="vector_49" fill="#2a1f1a" d="M224.546 256.74a1.51 1.51 0 0 0 0.728 0.49c0.632 0.166 1.118 0.214 1.572 0.084 0.098 -0.05 1.744 -0.426 3.636 -0.284 1.864 0.14 3.772 0.61 4 0.594 2.156 -0.156 2.082 -2.726 -0.192 -3.27 -2.166 -0.518 -5.19 -0.912 -7.532 -0.42 -0.084 0.008 -1.422 0.364 -1.882 0.77a1.54 1.54 0 0 0 -0.39 0.418c-0.396 0.6 -0.46 1.036 0.06 1.618Z" stroke-width="2"></path>
      <path id="vector_50" fill="#2a1f1a" d="M227.754 251.37c1.048 -1.85 0.216 -2.854 1.272 -6.806 0.608 -2.28 1.702 -4.41 1.776 -4.668 0.182 -0.87 0.13 -1.668 -0.678 -2.036 -0.954 -0.436 -2.202 0.742 -2.664 1.688 -2.316 4.738 -2.682 9.636 -2.212 11.078 0.146 0.45 0.55 1.14 0.914 1.3 0.492 0.216 1.274 0.006 1.592 -0.556Z" stroke-width="2"></path>
      <path id="vector_51" fill="#2a1f1a" d="M232.016 250.322a1.384 1.384 0 0 0 0.834 -0.4c1.524 -1.6 0.82 -2.216 3.284 -5.952 1.328 -2.014 2.932 -3.918 3.056 -4.178 1.156 -2.4 -1.412 -3.208 -3.184 -1.076 -1.636 1.97 -3.988 5.166 -4.862 7.572 -0.054 0.076 -0.572 1.602 -0.546 2.314 0.008 0.216 0.016 0.426 0.086 0.656 0.232 0.75 0.508 1.178 1.328 1.062l0.004 0.002Z" stroke-width="2"></path>
      <path id="vector_52" fill="#2a1f1a" d="M236.778 252.024c0.42 0.148 0.722 0.098 0.89 0.042 1.744 -0.58 1.334 -1.278 4.494 -3.876 1.598 -1.314 3.366 -2.494 3.526 -2.688 1.448 -1.764 -0.536 -3.354 -2.592 -2.034 -1.716 1.1 -7.024 5.024 -7.152 7.15 -0.042 0.706 0.104 1.146 0.836 1.404l-0.002 0.002Z" stroke-width="2"></path>
      <path id="vector_53" fill="#2a1f1a" d="M217.94 330.238c0.382 -0.346 0.486 -1.098 0.508 -1.614 0.09 -2.084 0.088 -4.194 -0.184 -6.28 -1.386 -10.678 -0.428 -29.604 -0.478 -30.984 -0.028 -0.77 -0.208 -3.166 -0.56 -3.836 -0.176 -0.334 -0.484 -0.548 -0.824 -0.378 -3.26 1.63 -1.958 29.12 -1.662 33.038 0.102 1.35 0.58 5.75 1.338 7.826 0.366 1.002 1.048 2.964 1.862 2.228Z" stroke-width="2"></path>
      <path id="vector_54" fill="#2a1f1a" d="M245.024 250.676c-1.42 0.63 -2.584 1.694 -3.464 2.916 -0.24 0.314 -2.544 3.734 -3.884 7.558 -2.004 5.298 -3.422 14.256 -3.556 16.39 -0.48 0.622 -1.052 1.18 -1.246 1.232 -0.026 0.036 -0.01 -0.046 -0.056 0 -0.478 -0.218 -0.832 -1.062 -1.412 -2.102 -0.44 -0.792 -0.988 -1.974 -2.502 -2.706 -1.184 -0.584 -2.918 -0.396 -3.996 0.246 -1.118 0.666 -1.682 1.39 -2.182 1.948 -0.482 0.538 -0.872 0.96 -1.112 1.09 -1.668 0.878 -1.61 -4.146 -4.64 -4.316 -0.86 0.092 -1.03 0.204 -1.442 0.548 -2.66 1.804 0.044 11.904 1.288 9.906 0.574 -0.914 0.284 -3.276 0.492 -4.024 0.114 -0.336 0.292 -0.508 0.53 -0.244 0.114 0.218 0.094 0.374 0.102 0.422 1.474 1.848 4.57 2.366 7.004 -0.254 1.046 -1.104 1.452 -1.786 2.09 -1.882 0.26 -0.042 0.3 -0.02 0.3 -0.02 0.12 -0.04 0.696 0.942 1.356 2.25 0.374 0.644 0.83 1.482 1.828 2.18 0.962 0.672 2.484 1.062 3.814 0.458 2.71 -1.23 3.874 -4.538 5.68 -5.902 0 0.074 -0.024 0.424 -0.074 0.656 -0.596 3.314 -2.06 4.248 -2.736 9.206 -1.294 0.026 -3.806 0.792 -8.096 0.906 -4.798 0.224 -6.47 -0.306 -7.86 0.082 -0.298 0.082 -0.84 0.254 -1.052 0.48 -0.42 0.456 -0.372 1.242 0.346 1.686a6.22 6.22 0 0 0 2.924 0.926c3.562 0.286 9.858 0.152 13.548 -0.848 0.022 3.212 0.656 6.114 1.318 9.238 0.338 1.14 4.586 23.01 6.388 20.072 0.39 -0.634 0.35 -2.144 0.272 -3.188 -1.232 -16.234 -6.012 -23.394 -3.356 -31.694 0.512 -1.72 3.182 -6.854 1.826 -9.394 -0.78 -1.774 -3.328 -2.672 -5.456 -1.37 0.502 -1.948 0.954 -6.018 2.762 -10.93 2.15 -5.736 4.518 -8.188 4.746 -8.586 0.406 -0.596 0.636 -1.048 0.974 -1.686 0.508 -1.016 -0.206 -1.804 -1.47 -1.25h0.004Z" stroke-width="2"></path>
    </g>
    <g id="character 3">
      <path id="vector_55" fill="#2a1f1a" d="M113.256 248.24c-0.148 -1.214 -0.956 -2.116 -1.806 -2.012 -0.85 0.104 -1.42 1.17 -1.272 2.386 0.148 1.216 0.956 2.116 1.806 2.012 0.85 -0.104 1.42 -1.17 1.272 -2.386Z" stroke-width="2"></path>
      <path id="vector_56" fill="#2a1f1a" d="M126.198 246.672c-0.148 -1.214 -0.956 -2.116 -1.806 -2.012 -0.85 0.104 -1.42 1.17 -1.272 2.386 0.148 1.214 0.956 2.116 1.806 2.012 0.85 -0.104 1.42 -1.17 1.272 -2.386Z" stroke-width="2"></path>
      <path id="vector_57" fill="#2a1f1a" d="M121.972 257.18c0.386 0.216 0.682 0.2 0.852 0.16 0.688 -0.162 1.188 -0.518 1.48 -1.028 1.042 -1.83 1.68 -3.588 0.218 -5.24 -1.282 -1.616 -2.628 -2.822 -2.842 -2.944a2.022 2.022 0 0 0 -0.934 -0.164c-0.616 0.028 -1.274 0.832 -1.25 1.436 0.066 1.638 0.976 1.58 2.59 3.89 -0.274 0.978 -0.966 1.678 -0.928 2.548 0.026 0.564 0.182 0.984 0.816 1.34l-0.002 0.002Z" stroke-width="2"></path>
      <path id="vector_58" fill="#2a1f1a" d="M113.934 263.486c0.1 0.092 1.902 1.242 3.904 1.466 1.986 0.222 3.846 -0.222 4.034 -0.346a1.786 1.786 0 0 0 0.618 -0.722c0.276 -0.554 -0.202 -1.51 -0.638 -1.794 -0.518 -0.338 -0.94 -0.452 -1.342 -0.402 -0.1 0.022 -1.212 0.16 -2.26 0.018 -1.826 -0.248 -2.488 -1.186 -3.368 -1.22 -1.71 -0.064 -2.448 1.862 -0.948 3Z" stroke-width="2"></path>
      <path id="vector_59" fill="#2a1f1a" d="M109.58 244.96c1.152 0.038 0.71 -0.26 1.89 -1.438 0.526 -0.526 1.132 -0.9 1.162 -0.998 0.146 -0.476 -0.026 -1.25 -0.208 -1.714 -0.344 -0.87 -1.214 -1.076 -1.662 -0.814 -0.898 0.432 -3.2 2.532 -3.142 3.462 0.058 0.94 1.42 1.484 1.96 1.502Z" stroke-width="2"></path>
      <path id="vector_60" fill="#2a1f1a" d="M126.372 240.408a4.736 4.736 0 0 0 -2.112 -1.138c-1.2 -0.27 -2.312 0.072 -2.4 0.188a1.19 1.19 0 0 0 -0.256 0.658c-0.08 0.684 1.018 2.348 1.268 2.304 1.308 -0.068 0.968 0.632 1.772 0.382 1.788 -0.554 2.288 -1.878 1.724 -2.394h0.004Z" stroke-width="2"></path>
      <path id="vector_61" fill="#2a1f1a" d="M137.742 217.864c-3.322 -13.4 -30.122 -5.648 -35.66 5.426 0 0 -12.072 -4.984 -17.166 10.964 -3.39 10.612 -0.504 15.682 1.808 17.886 -1.828 3.73 -0.412 8.598 4.974 11.472 0.2 0.108 1.524 0.712 1.724 0.774 0.026 0.01 0.12 0.012 0.1 0.034 -0.69 3.97 -5.04 27.79 -2.588 24.616 1.848 -2.392 6.044 -22.752 6.632 -25.716a1.672 1.672 0 0 0 -1.104 -1.912c-2.326 -0.786 -4.514 -1.604 -5.98 -3.77 -1.44 -2.228 -0.428 -4.798 1.944 -6.078 1.272 -0.686 1.102 -0.488 2.77 1.998 0.796 1.172 2.126 2.028 3.654 1.816 6.388 -1.538 7.33 -14.864 10.3 -18.27 0.356 -0.408 0.198 -0.186 0.252 -0.252 4.49 0.478 11.058 0.196 17.054 0.042 1.31 7.154 3.032 17.902 2.706 25.168 -0.238 5.01 -0.97 7.776 -5.81 10.4 -2.99 1.624 -7.244 2.778 -10.484 3.14a1.824 1.824 0 0 0 -1.61 1.962c0.228 2.814 1.672 18.776 2.932 15.838 0.922 -2.15 0.376 -11.61 0.486 -14.46 0.05 -0.2 0 -0.154 0.27 -0.122 1.59 -0.206 3.42 -0.578 5.296 -1.128 6.73 -1.99 11.808 -5.772 12.47 -12.76 0.858 -9.04 -1.104 -21.78 -2.894 -30.684 3.468 -1.598 10.454 -6.172 7.922 -16.382l0.002 -0.002Z" stroke-width="2"></path>
      <path id="vector_62" fill="#2a1f1a" d="M162.628 326.546c0.254 -1.236 -0.466 -4.374 -1.212 -6.486 -4.436 -12.578 -12.212 -21.232 -23.122 -27.32 -4.968 -2.354 -4.206 -2.11 -10.068 -4.168 -0.668 -0.234 -0.816 -0.24 -5.13 -1.252 -0.924 -0.136 -1.892 -0.692 -2.904 -0.24 -0.704 0.314 -0.856 0.776 -1.14 1.25 -1.898 5.282 -8.336 23.03 -13.17 25.884 -0.398 0.234 -0.51 0.168 -0.556 0.16 -4.194 -2.122 -11.824 -15.66 -14.078 -19.812 -3.518 -6.486 -3.566 -7.816 -5.634 -7.566 -1.544 0.364 -5.87 1.372 -6.504 1.552 -8.586 3.056 -4.148 1.428 -8.772 3.526 -5.362 2.434 -10.482 6.924 -10.73 7.12 -7.392 6.522 -12.304 14.386 -14.702 22.928 -0.288 1.028 -0.542 2.076 -0.646 2.988 -0.162 1.432 0.06 2.286 0.614 1.548 1.628 -2.174 2.9 -7.776 9.786 -16.852 2.526 -3.328 6.844 -7.572 9.28 -9.3 3.094 -2.542 6.636 -4.468 10.266 -6.138 1.818 -0.836 3.756 -1.402 5.638 -2.088 0.704 -0.256 0.518 -0.17 5.224 -1.28 3.412 6.442 9.226 17.388 14.266 23.132 1.886 2.148 2.648 2.65 4.038 3.53 7.408 4.688 15.796 -18.432 18.798 -26.612 4.098 0.97 4.18 0.934 5.114 1.266 2.43 0.862 4.916 1.608 7.18 2.848 9.508 4.216 19.55 13.996 25.652 27.676 0.74 1.658 2.174 5.334 2.51 3.704l0.002 0.002Z" stroke-width="2"></path>
    </g>
  </g>
</svg>